<?xml version="1.0" encoding="utf-8"?>
<!-- Generator: Adobe Illustrator 27.9.4, SVG Export Plug-In . SVG Version: 9.03 Build 54784)  -->
<svg version="1.1" id="Layer_1" xmlns="http://www.w3.org/2000/svg" xmlns:xlink="http://www.w3.org/1999/xlink" x="0px" y="0px"
	 viewBox="0 0 300 214.4" style="enable-background:new 0 0 300 214.4;" xml:space="preserve">
<g>
	<g>
		
			<line style="fill:none;stroke:#CCCCCC;stroke-width:1.0696;stroke-linecap:round;stroke-linejoin:round;" x1="63.5" y1="122.1" x2="63.7" y2="120.6"/>
		
			<line style="fill:none;stroke:#CCCCCC;stroke-width:1.0696;stroke-linecap:round;stroke-linejoin:round;stroke-dasharray:3.0402,3.0402;" x1="64.2" y1="117.6" x2="78.1" y2="29"/>
		
			<line style="fill:none;stroke:#CCCCCC;stroke-width:1.0696;stroke-linecap:round;stroke-linejoin:round;" x1="78.3" y1="27.5" x2="78.6" y2="26"/>
	</g>
</g>
<ellipse style="fill:none;stroke:#FFFFFF;stroke-width:2;stroke-linecap:round;stroke-linejoin:round;stroke-miterlimit:10;" cx="152.1" cy="60.5" rx="78.9" ry="17.1"/>
<path style="fill:none;stroke:#FFFFFF;stroke-width:2;stroke-linecap:round;stroke-linejoin:round;stroke-miterlimit:10;" d="
	M240.6,122.1c0,10.4-39.7,18.9-88.6,18.9s-88.6-8.5-88.6-18.9"/>
<path style="fill:none;stroke:#FFFFFF;stroke-width:2;stroke-linecap:round;stroke-linejoin:round;stroke-miterlimit:10;" d="
	M280.3,158.9c1.7,1.8,2.7,3.7,2.7,5.6c0,15.4-58.6,28-130.9,28S21.2,180,21.2,164.6c0-1.9,0.9-3.8,2.7-5.6"/>
<g>
	
		<line style="fill:none;stroke:#FFFFFF;stroke-width:2;stroke-linecap:round;stroke-linejoin:round;stroke-miterlimit:10;" x1="73.2" y1="60.5" x2="63.5" y2="122.1"/>
</g>
<line style="fill:none;stroke:#FFFFFF;stroke-width:2;stroke-linecap:round;stroke-linejoin:round;stroke-miterlimit:10;" x1="231" y1="60.5" x2="240.6" y2="122.1"/>
<line style="fill:none;stroke:#FFFFFF;stroke-width:2;stroke-linecap:round;stroke-linejoin:round;stroke-miterlimit:10;" x1="280.3" y1="158.9" x2="240.6" y2="122.1"/>
<line style="fill:none;stroke:#FFFFFF;stroke-width:2;stroke-linecap:round;stroke-linejoin:round;stroke-miterlimit:10;" x1="23.8" y1="158.9" x2="63.5" y2="122.1"/>
<g>
	<g>
		<line style="fill:none;stroke:#CCCCCC;stroke-linecap:round;stroke-linejoin:round;" x1="63.5" y1="122.1" x2="63.5" y2="120.6"/>
		
			<line style="fill:none;stroke:#CCCCCC;stroke-linecap:round;stroke-linejoin:round;stroke-dasharray:3.0389,3.0389;" x1="63.5" y1="117.5" x2="63.5" y2="27.9"/>
		<line style="fill:none;stroke:#CCCCCC;stroke-linecap:round;stroke-linejoin:round;" x1="63.5" y1="26.4" x2="63.5" y2="24.9"/>
	</g>
</g>
<g>
	<g>
		<line style="fill:none;stroke:#CCCCCC;stroke-linecap:round;stroke-linejoin:round;" x1="63.5" y1="122.1" x2="62" y2="122.1"/>
		
			<line style="fill:none;stroke:#CCCCCC;stroke-linecap:round;stroke-linejoin:round;stroke-dasharray:3.054,3.054;" x1="58.9" y1="122.1" x2="29.9" y2="122.1"/>
		<line style="fill:none;stroke:#CCCCCC;stroke-linecap:round;stroke-linejoin:round;" x1="28.4" y1="122.1" x2="26.9" y2="122.1"/>
	</g>
</g>
<g>
	<g>
		
			<line style="fill:none;stroke:#CCCCCC;stroke-linecap:round;stroke-linejoin:round;" x1="152.1" y1="81.9" x2="152.1" y2="136.1"/>
		<g>
			<polygon style="fill:#CCCCCC;" points="150.6,82.9 152.1,77.5 153.5,82.9 			"/>
		</g>
		<g>
			<polygon style="fill:#CCCCCC;" points="150.6,135.1 152.1,140.5 153.5,135.1 			"/>
		</g>
	</g>
</g>
<g>
	<g>
		<line style="fill:none;stroke:#CCCCCC;stroke-linecap:round;stroke-linejoin:round;" x1="229.8" y1="135" x2="262.7" y2="175.1"/>
		<g>
			<polygon style="fill:#CCCCCC;" points="229.3,136.6 227,131.5 231.6,134.8 			"/>
		</g>
		<g>
			<polygon style="fill:#CCCCCC;" points="260.9,175.2 265.5,178.5 263.2,173.4 			"/>
		</g>
	</g>
</g>
<g>
	<g>
		<line style="fill:none;stroke:#CCCCCC;stroke-linecap:round;stroke-linejoin:round;" x1="77.6" y1="60.5" x2="226.5" y2="60.5"/>
		<g>
			<polygon style="fill:#CCCCCC;" points="78.6,61.9 73.2,60.5 78.6,59 			"/>
		</g>
		<g>
			<polygon style="fill:#CCCCCC;" points="225.5,61.9 231,60.5 225.5,59 			"/>
		</g>
	</g>
</g>
<g>
	<g>
		<path style="fill:none;stroke:#CCCCCC;stroke-width:1.0696;stroke-linecap:round;stroke-linejoin:round;" d="M34.4,142.7
			c-3.3-4.6-5.5-10-6.3-15.9"/>
		<g>
			<polygon style="fill:#CCCCCC;" points="35,140.9 37.3,146.4 32.5,142.8 			"/>
		</g>
		<g>
			<polygon style="fill:#CCCCCC;" points="29.8,127.7 27.8,122.1 26.7,128 			"/>
		</g>
	</g>
</g>
<g>
	<g>
		<path style="fill:none;stroke:#CCCCCC;stroke-linecap:round;stroke-linejoin:round;" d="M67.9,26.1c2,0.1,4.1,0.2,6.1,0.5"/>
		<g>
			<polygon style="fill:#CCCCCC;" points="68.9,27.7 63.5,26 69,24.8 			"/>
		</g>
		<g>
			<polygon style="fill:#CCCCCC;" points="72.8,28 78.4,27.1 73.2,25.1 			"/>
		</g>
	</g>
</g>
<g>
	<path style="fill:#FFFFFF;" d="M103.3,164.5c-0.1,0.7-0.5,1.4-1,1.8c-0.5,0.4-1.2,0.6-2.2,0.5l-3-0.4l1-8.2l3,0.3
		c0.8,0.1,1.3,0.4,1.7,0.8c0.3,0.4,0.5,1,0.5,1.6c-0.1,0.6-0.3,1.1-0.8,1.4C103,162.9,103.4,163.7,103.3,164.5z M101.3,164.3
		c0-0.3,0-0.5-0.2-0.7c-0.2-0.2-0.4-0.3-0.9-0.4l-0.8-0.1l-0.2,1.9l0.8,0.1c0.5,0.1,0.7,0,0.9-0.2
		C101.1,164.8,101.3,164.5,101.3,164.3z M100.1,161.6c0.4,0.1,0.6,0,0.8-0.1c0.1-0.1,0.3-0.3,0.3-0.5c0-0.2,0-0.4-0.2-0.6
		c-0.1-0.1-0.3-0.3-0.7-0.3l-0.5-0.1l-0.2,1.5L100.1,161.6z"/>
	<path style="fill:#FFFFFF;" d="M108.3,162.2l-0.2,1.7c-0.2-0.1-0.3-0.1-0.5-0.1c-0.4,0-0.8,0.1-1,0.3c-0.3,0.2-0.5,0.5-0.5,1.1
		l-0.3,2.3l-1.8-0.2l0.6-5.5l1.7,0.2l-0.1,0.7c0.4-0.4,1-0.6,1.6-0.5C107.9,162.1,108.1,162.1,108.3,162.2z"/>
	<path style="fill:#FFFFFF;" d="M110.9,162.5l-0.6,5.5l-1.8-0.2l0.6-5.5L110.9,162.5z M109.2,160.5c0.1-0.6,0.6-1,1.2-0.9
		c0.6,0.1,1,0.6,0.9,1.2s-0.6,1-1.2,0.9C109.5,161.6,109.1,161.1,109.2,160.5z"/>
	<path style="fill:#FFFFFF;" d="M112.1,162.6l1.7,0.2l-0.1,0.4c0.4-0.3,0.9-0.5,1.5-0.4c0.7,0.1,1.2,0.4,1.6,0.9
		c0.5-0.4,1.1-0.6,1.9-0.5c0.6,0.1,1.1,0.4,1.5,0.8c0.3,0.4,0.5,1,0.4,1.9l-0.4,3.2l-1.8-0.2l0.3-3c0.1-0.4,0-0.7-0.1-0.8
		c-0.1-0.2-0.3-0.3-0.6-0.3c-0.2,0-0.4,0-0.6,0.2c-0.2,0.1-0.3,0.3-0.3,0.8l-0.3,3l-1.8-0.2l0.3-3c0.1-0.4,0-0.7-0.1-0.8
		c-0.1-0.2-0.3-0.3-0.6-0.3c-0.2,0-0.4,0-0.6,0.2c-0.2,0.1-0.3,0.3-0.3,0.8l-0.3,3l-1.8-0.2L112.1,162.6z"/>
</g>
<g>
	<path style="fill:#FFFFFF;" d="M104.3,107.1l1.4-1.2c0.4,0.5,1,0.9,1.8,0.9c0.6,0,1-0.2,1.1-0.7c0-0.5-0.5-0.8-1.2-1.1l-0.5-0.2
		c-0.9-0.4-1.8-1.2-1.7-2.4c0.1-1.4,1.4-2.5,3-2.3c1,0.1,1.9,0.5,2.5,1.1l-1.3,1.3c-0.3-0.3-0.8-0.6-1.3-0.6c-0.5,0-0.9,0.2-1,0.6
		c0,0.4,0.5,0.6,1.1,0.9l0.5,0.2c1,0.4,2.1,1.2,2,2.7c-0.1,1.5-1.5,2.6-3.2,2.5C106.1,108.6,105,108,104.3,107.1z"/>
	<path style="fill:#FFFFFF;" d="M113.6,103.4l-0.4,5.5l-1.8-0.1l0.4-5.5L113.6,103.4z M111.7,101.5c0-0.6,0.5-1,1.1-1
		c0.6,0,1,0.5,1,1.1s-0.5,1-1.1,1C112.1,102.6,111.7,102.1,111.7,101.5z"/>
	<path style="fill:#FFFFFF;" d="M120.8,100.8l-0.6,8.5l-1.7-0.1l0-0.5c-0.4,0.4-1,0.6-1.7,0.6c-1.6-0.1-2.7-1.5-2.6-3.1
		c0.1-1.6,1.4-2.8,3-2.7c0.5,0,1,0.3,1.4,0.6l0.2-3.4L120.8,100.8z M118.6,106.5c0-0.7-0.4-1.3-1.1-1.3s-1.2,0.4-1.3,1.2
		c0,0.7,0.4,1.3,1.1,1.3S118.5,107.2,118.6,106.5z"/>
	<path style="fill:#FFFFFF;" d="M127,107.5l-3.8-0.3c0,0.5,0.5,0.9,1.1,1c0.5,0,0.9-0.2,1.1-0.6l1.4,0.8c-0.6,0.8-1.5,1.3-2.7,1.3
		c-1.7-0.1-2.9-1.4-2.8-3.1c0.1-1.7,1.4-2.8,3-2.7c1.7,0.1,2.8,1.4,2.7,3.1C127,107.2,127,107.4,127,107.5z M123.2,106.1l2,0.1
		c0-0.5-0.4-0.8-1-0.9C123.7,105.3,123.3,105.6,123.2,106.1z"/>
</g>
<g>
	<path style="fill:#FFFFFF;" d="M143.2,65.1v-1.8h5.8v1.8h-1.9v6.5h-1.9v-6.5H143.2z"/>
	<path style="fill:#FFFFFF;" d="M148.4,68.8c0-1.6,1.3-2.9,3.1-2.9c1.8,0,3.1,1.3,3.1,2.9c0,1.6-1.3,2.9-3.1,2.9
		C149.8,71.8,148.4,70.5,148.4,68.8z M152.7,68.8c0-0.7-0.5-1.3-1.2-1.3c-0.7,0-1.2,0.5-1.2,1.3c0,0.7,0.5,1.3,1.2,1.3
		C152.2,70.1,152.7,69.6,152.7,68.8z"/>
	<path style="fill:#FFFFFF;" d="M161.6,68.8c0,1.6-1.2,2.9-2.8,2.9c-0.5,0-1.1-0.2-1.5-0.5v3.1h-1.8v-8.3h1.7v0.5
		c0.4-0.4,1-0.7,1.6-0.7C160.4,65.9,161.6,67.2,161.6,68.8z M159.7,68.8c0-0.7-0.5-1.3-1.2-1.3c-0.7,0-1.2,0.5-1.2,1.3
		c0,0.7,0.5,1.3,1.2,1.3C159.2,70.1,159.7,69.6,159.7,68.8z"/>
</g>
<g>
	<path style="fill:#FFFFFF;" d="M161.4,98.6H159v2.8h2.4v0.8h-6v-0.8h2.9v-2.8h-2.9v-0.8h6V98.6z"/>
	<path style="fill:#FFFFFF;" d="M157.3,106.9c0,0-0.1,0-0.1,0c0,0-0.1,0-0.1,0V104c-0.1,0-0.3,0.1-0.4,0.1s-0.2,0.2-0.3,0.3
		c-0.1,0.1-0.2,0.2-0.2,0.4c0,0.1-0.1,0.3-0.1,0.4c0,0.2,0.1,0.4,0.2,0.6c0.1,0.2,0.3,0.3,0.4,0.4l-0.4,0.6
		c-0.3-0.2-0.5-0.4-0.7-0.7c-0.2-0.3-0.3-0.6-0.3-1c0-0.3,0.1-0.5,0.2-0.8c0.1-0.2,0.2-0.4,0.4-0.6c0.2-0.2,0.4-0.3,0.6-0.4
		s0.5-0.1,0.8-0.1c0.3,0,0.6,0,0.8,0.1c0.2,0.1,0.5,0.2,0.6,0.4s0.3,0.4,0.4,0.6c0.1,0.2,0.2,0.5,0.2,0.7c0,0.3-0.1,0.5-0.2,0.7
		c-0.1,0.2-0.2,0.4-0.4,0.6s-0.4,0.3-0.6,0.4C157.9,106.9,157.6,106.9,157.3,106.9z M158.6,105.1c0-0.1,0-0.3-0.1-0.4
		c0-0.1-0.1-0.2-0.2-0.3c-0.1-0.1-0.2-0.2-0.3-0.2s-0.2-0.1-0.4-0.1v2.1c0.3,0,0.5-0.1,0.7-0.3C158.5,105.6,158.6,105.4,158.6,105.1
		z"/>
	<path style="fill:#FFFFFF;" d="M159.2,107.9v0.8h-3.8v-0.8H159.2z M159.8,108.3c0-0.1,0.1-0.3,0.2-0.4c0.1-0.1,0.2-0.2,0.4-0.2
		s0.3,0.1,0.4,0.2c0.1,0.1,0.2,0.2,0.2,0.4c0,0.1-0.1,0.3-0.2,0.4c-0.1,0.1-0.2,0.2-0.4,0.2s-0.3-0.1-0.4-0.2
		C159.9,108.5,159.8,108.4,159.8,108.3z"/>
	<path style="fill:#FFFFFF;" d="M159.2,113.5h-3.9c-0.4,0-0.6,0-0.9-0.1c-0.2-0.1-0.4-0.2-0.6-0.4c-0.2-0.2-0.3-0.4-0.4-0.6
		c-0.1-0.2-0.2-0.5-0.2-0.8c0-0.3,0-0.5,0.1-0.7c0.1-0.2,0.2-0.4,0.4-0.6c0.1-0.2,0.3-0.3,0.5-0.4s0.4-0.2,0.7-0.2v0.8
		c-0.3,0-0.5,0.1-0.7,0.3c-0.2,0.2-0.3,0.5-0.3,0.8c0,0.3,0.1,0.6,0.3,0.8c0.1,0.1,0.2,0.2,0.4,0.2c0.2,0.1,0.4,0.1,0.6,0.1h0.4
		c-0.2-0.2-0.3-0.3-0.4-0.5c-0.1-0.2-0.1-0.4-0.1-0.7c0-0.3,0.1-0.5,0.2-0.8c0.1-0.2,0.2-0.4,0.4-0.6c0.2-0.2,0.4-0.3,0.6-0.4
		c0.2-0.1,0.5-0.1,0.8-0.1s0.5,0,0.8,0.1c0.2,0.1,0.5,0.2,0.6,0.4c0.2,0.2,0.3,0.4,0.4,0.6c0.1,0.2,0.2,0.5,0.2,0.8
		c0,0.2,0,0.5-0.1,0.7s-0.2,0.4-0.4,0.6h0.4V113.5z M156,111.6c0,0.2,0,0.3,0.1,0.5c0.1,0.1,0.2,0.3,0.3,0.4s0.2,0.2,0.4,0.3
		c0.2,0.1,0.3,0.1,0.5,0.1c0.2,0,0.3,0,0.5-0.1s0.3-0.1,0.4-0.3c0.1-0.1,0.2-0.2,0.3-0.4s0.1-0.3,0.1-0.5s0-0.3-0.1-0.5
		s-0.2-0.3-0.3-0.4c-0.1-0.1-0.2-0.2-0.4-0.3s-0.3-0.1-0.5-0.1c-0.2,0-0.3,0-0.5,0.1c-0.2,0.1-0.3,0.1-0.4,0.3s-0.2,0.2-0.3,0.4
		C156.1,111.3,156,111.4,156,111.6z"/>
	<path style="fill:#FFFFFF;" d="M158.9,117.5c-0.1,0.1-0.3,0.2-0.5,0.3c-0.2,0.1-0.4,0.1-0.7,0.1h-2.3v-0.8h2.2c0.2,0,0.4,0,0.5-0.1
		c0.1,0,0.2-0.1,0.3-0.2c0.2-0.2,0.2-0.4,0.2-0.6s-0.1-0.4-0.2-0.6c-0.1-0.1-0.2-0.1-0.3-0.2s-0.3-0.1-0.5-0.1h-2.2v-0.8h6.2v0.8
		H159c0.1,0.1,0.2,0.3,0.3,0.4c0.1,0.2,0.1,0.3,0.1,0.5c0,0.2,0,0.4-0.1,0.6C159.1,117.2,159,117.4,158.9,117.5z"/>
	<path style="fill:#FFFFFF;" d="M158.5,119.4v-0.7h0.7v0.7h1.5v0.8h-1.5v0.8h-0.7v-0.8h-3.1v-0.8H158.5z"/>
</g>
<g>
	<path style="fill:#FFFFFF;" d="M128.4,51.7v-0.8h3.7v0.8h-1.4v5.3h-0.8v-5.3H128.4z"/>
	<path style="fill:#FFFFFF;" d="M134,57c-0.3,0-0.5-0.1-0.8-0.2s-0.5-0.2-0.6-0.4c-0.2-0.2-0.3-0.4-0.4-0.6
		c-0.1-0.2-0.2-0.5-0.2-0.8s0.1-0.5,0.2-0.8c0.1-0.2,0.2-0.5,0.4-0.6c0.2-0.2,0.4-0.3,0.6-0.4s0.5-0.2,0.8-0.2s0.5,0.1,0.8,0.2
		s0.5,0.2,0.6,0.4c0.2,0.2,0.3,0.4,0.4,0.6c0.1,0.2,0.2,0.5,0.2,0.8s-0.1,0.5-0.2,0.8s-0.2,0.5-0.4,0.6c-0.2,0.2-0.4,0.3-0.6,0.4
		S134.3,57,134,57z M134,56.3c0.2,0,0.3,0,0.5-0.1s0.3-0.2,0.4-0.3s0.2-0.3,0.3-0.4s0.1-0.3,0.1-0.5c0-0.2,0-0.4-0.1-0.5
		s-0.1-0.3-0.3-0.4c-0.1-0.1-0.2-0.2-0.4-0.3s-0.3-0.1-0.5-0.1s-0.3,0-0.5,0.1s-0.3,0.2-0.4,0.3c-0.1,0.1-0.2,0.3-0.3,0.4
		s-0.1,0.3-0.1,0.5c0,0.2,0,0.4,0.1,0.5s0.1,0.3,0.3,0.4s0.2,0.2,0.4,0.3S133.8,56.3,134,56.3z"/>
	<path style="fill:#FFFFFF;" d="M138.9,53c0.3,0,0.5,0.1,0.8,0.2c0.2,0.1,0.4,0.2,0.6,0.4s0.3,0.4,0.4,0.6c0.1,0.2,0.1,0.5,0.1,0.8
		s0,0.5-0.1,0.8s-0.2,0.5-0.4,0.6c-0.2,0.2-0.4,0.3-0.6,0.4c-0.2,0.1-0.5,0.2-0.8,0.2c-0.2,0-0.5,0-0.7-0.1
		c-0.2-0.1-0.4-0.2-0.5-0.3V59H137v-5.9h0.7v0.4c0.2-0.2,0.3-0.3,0.6-0.4S138.7,53,138.9,53z M138.8,56.3c0.2,0,0.3,0,0.5-0.1
		c0.1-0.1,0.3-0.2,0.4-0.3s0.2-0.2,0.3-0.4c0.1-0.2,0.1-0.3,0.1-0.5c0-0.2,0-0.3-0.1-0.5c-0.1-0.2-0.1-0.3-0.3-0.4s-0.2-0.2-0.4-0.3
		c-0.1-0.1-0.3-0.1-0.5-0.1c-0.2,0-0.3,0-0.5,0.1c-0.1,0.1-0.3,0.2-0.4,0.3s-0.2,0.2-0.3,0.4c-0.1,0.2-0.1,0.3-0.1,0.5
		c0,0.2,0,0.3,0.1,0.5c0.1,0.2,0.1,0.3,0.3,0.4s0.2,0.2,0.4,0.3C138.5,56.3,138.7,56.3,138.8,56.3z"/>
	<path style="fill:#FFFFFF;" d="M148.5,53.9c0,0.4-0.1,0.8-0.2,1.2c-0.2,0.4-0.4,0.7-0.6,1c-0.3,0.3-0.6,0.5-1,0.6s-0.8,0.2-1.3,0.2
		h-1.5v-6h1.5c0.5,0,1,0.1,1.3,0.2s0.7,0.4,1,0.6c0.3,0.3,0.5,0.6,0.6,1C148.4,53.1,148.5,53.5,148.5,53.9z M144.7,56.2h0.6
		c0.4,0,0.7-0.1,1-0.2c0.3-0.1,0.5-0.3,0.7-0.5c0.2-0.2,0.4-0.4,0.5-0.7c0.1-0.3,0.2-0.6,0.2-0.9c0-0.3-0.1-0.6-0.2-0.9
		c-0.1-0.3-0.3-0.5-0.5-0.7c-0.2-0.2-0.4-0.4-0.7-0.5s-0.6-0.2-1-0.2h-0.6V56.2z"/>
	<path style="fill:#FFFFFF;" d="M149.8,52.5c-0.1,0-0.3-0.1-0.4-0.2c-0.1-0.1-0.2-0.2-0.2-0.4s0.1-0.3,0.2-0.4
		c0.1-0.1,0.2-0.2,0.4-0.2c0.1,0,0.3,0.1,0.4,0.2c0.1,0.1,0.2,0.2,0.2,0.4s-0.1,0.3-0.2,0.4C150.1,52.5,150,52.5,149.8,52.5z
		 M149.4,53.1h0.8v3.8h-0.8V53.1z"/>
	<path style="fill:#FFFFFF;" d="M155.1,53.1v3.8h-0.7v-0.4c-0.2,0.2-0.3,0.3-0.6,0.4c-0.2,0.1-0.4,0.1-0.7,0.1
		c-0.3,0-0.5-0.1-0.8-0.2s-0.4-0.2-0.6-0.4c-0.2-0.2-0.3-0.4-0.4-0.6s-0.1-0.5-0.1-0.8s0-0.5,0.1-0.8c0.1-0.2,0.2-0.5,0.4-0.6
		c0.2-0.2,0.4-0.3,0.6-0.4s0.5-0.2,0.8-0.2c0.2,0,0.5,0,0.7,0.1s0.4,0.2,0.6,0.4v-0.4H155.1z M153.2,56.3c0.2,0,0.3,0,0.5-0.1
		c0.1-0.1,0.3-0.2,0.4-0.3s0.2-0.2,0.3-0.4c0.1-0.2,0.1-0.3,0.1-0.5c0-0.2,0-0.3-0.1-0.5s-0.1-0.3-0.3-0.4s-0.2-0.2-0.4-0.3
		c-0.1-0.1-0.3-0.1-0.5-0.1s-0.3,0-0.5,0.1c-0.1,0.1-0.3,0.2-0.4,0.3s-0.2,0.2-0.3,0.4S152,54.8,152,55c0,0.2,0,0.3,0.1,0.5
		c0.1,0.2,0.1,0.3,0.3,0.4s0.2,0.2,0.4,0.3C152.8,56.3,153,56.3,153.2,56.3z"/>
	<path style="fill:#FFFFFF;" d="M160.1,53c0.2,0,0.4,0,0.6,0.1c0.2,0.1,0.3,0.2,0.4,0.3c0.1,0.1,0.2,0.3,0.3,0.4
		c0.1,0.2,0.1,0.3,0.1,0.5v2.5h-0.8v-2.3c0-0.2,0-0.3-0.1-0.4c0-0.1-0.1-0.2-0.2-0.2c-0.1-0.1-0.3-0.2-0.5-0.2
		c-0.2,0-0.4,0.1-0.5,0.2c-0.1,0.1-0.1,0.1-0.2,0.2c0,0.1-0.1,0.2-0.1,0.4v2.3h-0.8v-2.3c0-0.2,0-0.3-0.1-0.4c0-0.1-0.1-0.2-0.2-0.2
		c-0.1-0.1-0.3-0.2-0.5-0.2c-0.2,0-0.4,0.1-0.5,0.2c-0.1,0.1-0.1,0.1-0.2,0.2c0,0.1-0.1,0.2-0.1,0.4v2.3h-0.8v-3.8h0.7v0.3
		c0.1-0.1,0.2-0.2,0.4-0.3c0.2-0.1,0.3-0.1,0.5-0.1c0.4,0,0.8,0.2,1,0.5c0.1-0.2,0.3-0.3,0.5-0.4C159.6,53.1,159.8,53,160.1,53z"/>
	<path style="fill:#FFFFFF;" d="M166.1,55c0,0,0,0.1,0,0.1c0,0,0,0.1,0,0.1h-2.9c0,0.1,0.1,0.3,0.1,0.4c0.1,0.1,0.2,0.2,0.3,0.3
		c0.1,0.1,0.2,0.2,0.4,0.2c0.1,0,0.3,0.1,0.4,0.1c0.2,0,0.4-0.1,0.6-0.2c0.2-0.1,0.3-0.3,0.4-0.4l0.6,0.4c-0.2,0.3-0.4,0.5-0.7,0.7
		c-0.3,0.2-0.6,0.3-1,0.3c-0.3,0-0.5-0.1-0.8-0.2s-0.4-0.2-0.6-0.4c-0.2-0.2-0.3-0.4-0.4-0.6s-0.1-0.5-0.1-0.8c0-0.3,0-0.6,0.1-0.8
		c0.1-0.2,0.2-0.5,0.4-0.6s0.4-0.3,0.6-0.4c0.2-0.1,0.5-0.2,0.7-0.2c0.3,0,0.5,0.1,0.7,0.2s0.4,0.2,0.6,0.4s0.3,0.4,0.4,0.6
		C166,54.5,166.1,54.7,166.1,55z M164.2,53.7c-0.1,0-0.3,0-0.4,0.1s-0.2,0.1-0.3,0.2c-0.1,0.1-0.2,0.2-0.2,0.3s-0.1,0.2-0.1,0.4h2.1
		c0-0.3-0.1-0.5-0.3-0.7C164.8,53.8,164.5,53.7,164.2,53.7z"/>
	<path style="fill:#FFFFFF;" d="M167.2,53.8h-0.7v-0.7h0.7v-1.5h0.8v1.5h0.8v0.7H168v3.1h-0.8V53.8z"/>
	<path style="fill:#FFFFFF;" d="M172.9,55c0,0,0,0.1,0,0.1c0,0,0,0.1,0,0.1H170c0,0.1,0.1,0.3,0.1,0.4c0.1,0.1,0.2,0.2,0.3,0.3
		c0.1,0.1,0.2,0.2,0.4,0.2c0.1,0,0.3,0.1,0.4,0.1c0.2,0,0.4-0.1,0.6-0.2c0.2-0.1,0.3-0.3,0.4-0.4l0.6,0.4c-0.2,0.3-0.4,0.5-0.7,0.7
		c-0.3,0.2-0.6,0.3-1,0.3c-0.3,0-0.5-0.1-0.8-0.2s-0.4-0.2-0.6-0.4c-0.2-0.2-0.3-0.4-0.4-0.6s-0.1-0.5-0.1-0.8c0-0.3,0-0.6,0.1-0.8
		c0.1-0.2,0.2-0.5,0.4-0.6s0.4-0.3,0.6-0.4c0.2-0.1,0.5-0.2,0.7-0.2c0.3,0,0.5,0.1,0.7,0.2s0.4,0.2,0.6,0.4s0.3,0.4,0.4,0.6
		C172.9,54.5,172.9,54.7,172.9,55z M171.1,53.7c-0.1,0-0.3,0-0.4,0.1s-0.2,0.1-0.3,0.2c-0.1,0.1-0.2,0.2-0.2,0.3s-0.1,0.2-0.1,0.4
		h2.1c0-0.3-0.1-0.5-0.3-0.7C171.6,53.8,171.4,53.7,171.1,53.7z"/>
	<path style="fill:#FFFFFF;" d="M175.7,53.1c0,0,0.1,0,0.1,0c0,0,0.1,0,0.1,0v0.7c0,0-0.1,0-0.1,0c0,0-0.1,0-0.1,0
		c-0.2,0-0.3,0-0.4,0.1c-0.1,0.1-0.2,0.1-0.3,0.2c-0.1,0.1-0.2,0.2-0.2,0.3c-0.1,0.1-0.1,0.3-0.1,0.5v1.9h-0.8v-3.8h0.7v0.5
		c0,0,0,0,0.1-0.1c0,0,0,0,0.1-0.1c0.1-0.1,0.3-0.2,0.4-0.3C175.3,53.1,175.5,53.1,175.7,53.1z"/>
</g>
<g>
	<path style="fill:#FFFFFF;" d="M53.2,20.1c0.1,0.3,0.2,0.5,0.4,0.6s0.5,0.2,0.8,0.2c0.2,0,0.3,0,0.5-0.1c0.1-0.1,0.3-0.1,0.4-0.2
		c0.1-0.1,0.2-0.2,0.2-0.3s0.1-0.3,0.1-0.4c0-0.2-0.1-0.4-0.2-0.6c-0.1-0.2-0.3-0.3-0.6-0.4l-0.8-0.3c-0.4-0.1-0.7-0.3-0.9-0.6
		s-0.3-0.6-0.3-0.9c0-0.2,0-0.4,0.1-0.6c0.1-0.2,0.2-0.4,0.4-0.5s0.3-0.2,0.5-0.3c0.2-0.1,0.4-0.1,0.7-0.1c0.4,0,0.7,0.1,0.9,0.3
		c0.3,0.2,0.5,0.4,0.6,0.7l-0.7,0.4c-0.1-0.2-0.2-0.3-0.3-0.4c-0.1-0.1-0.3-0.1-0.5-0.1c-0.2,0-0.4,0.1-0.6,0.2
		c-0.2,0.2-0.2,0.3-0.2,0.6c0,0.2,0,0.3,0.1,0.4c0.1,0.1,0.3,0.3,0.5,0.3l0.9,0.3c0.4,0.2,0.8,0.4,1,0.7s0.3,0.7,0.3,1
		c0,0.3,0,0.5-0.1,0.7s-0.2,0.4-0.4,0.6s-0.4,0.3-0.6,0.4c-0.2,0.1-0.5,0.1-0.8,0.1c-0.3,0-0.5,0-0.7-0.1s-0.4-0.2-0.6-0.3
		c-0.2-0.1-0.3-0.3-0.4-0.5s-0.2-0.4-0.2-0.6L53.2,20.1z"/>
	<path style="fill:#FFFFFF;" d="M57.6,17.2c-0.1,0-0.3-0.1-0.4-0.2c-0.1-0.1-0.2-0.2-0.2-0.4s0.1-0.3,0.2-0.4
		c0.1-0.1,0.2-0.2,0.4-0.2s0.3,0.1,0.4,0.2s0.2,0.2,0.2,0.4S58.1,17,58,17.1C57.9,17.2,57.8,17.2,57.6,17.2z M57.2,17.8H58v3.8h-0.8
		V17.8z"/>
	<path style="fill:#FFFFFF;" d="M62.8,15.4v6.2h-0.7v-0.4c-0.2,0.2-0.3,0.3-0.6,0.4c-0.2,0.1-0.4,0.1-0.7,0.1
		c-0.3,0-0.5-0.1-0.8-0.2c-0.2-0.1-0.4-0.2-0.6-0.4c-0.2-0.2-0.3-0.4-0.4-0.6S59,20,59,19.8s0-0.5,0.1-0.8c0.1-0.2,0.2-0.5,0.4-0.6
		s0.4-0.3,0.6-0.4c0.2-0.1,0.5-0.2,0.8-0.2c0.2,0,0.5,0,0.7,0.1s0.4,0.2,0.5,0.3v-2.8H62.8z M61,21c0.2,0,0.3,0,0.5-0.1
		s0.3-0.2,0.4-0.3s0.2-0.2,0.3-0.4c0.1-0.2,0.1-0.3,0.1-0.5c0-0.2,0-0.3-0.1-0.5s-0.1-0.3-0.3-0.4s-0.2-0.2-0.4-0.3
		s-0.3-0.1-0.5-0.1s-0.3,0-0.5,0.1s-0.3,0.2-0.4,0.3s-0.2,0.2-0.3,0.4s-0.1,0.3-0.1,0.5c0,0.2,0,0.3,0.1,0.5
		c0.1,0.2,0.1,0.3,0.3,0.4s0.2,0.2,0.4,0.3S60.8,21,61,21z"/>
	<path style="fill:#FFFFFF;" d="M67.5,19.8c0,0,0,0.1,0,0.1c0,0,0,0.1,0,0.1h-2.9c0,0.1,0.1,0.3,0.1,0.4c0.1,0.1,0.2,0.2,0.3,0.3
		c0.1,0.1,0.2,0.2,0.4,0.2c0.1,0,0.3,0.1,0.4,0.1c0.2,0,0.4-0.1,0.6-0.2s0.3-0.3,0.4-0.4l0.6,0.4c-0.2,0.3-0.4,0.5-0.7,0.7
		c-0.3,0.2-0.6,0.3-1,0.3c-0.3,0-0.5-0.1-0.8-0.2c-0.2-0.1-0.4-0.2-0.6-0.4c-0.2-0.2-0.3-0.4-0.4-0.6s-0.1-0.5-0.1-0.8
		c0-0.3,0-0.6,0.1-0.8c0.1-0.2,0.2-0.5,0.4-0.6c0.2-0.2,0.4-0.3,0.6-0.4c0.2-0.1,0.5-0.2,0.7-0.2c0.3,0,0.5,0.1,0.7,0.2
		s0.4,0.2,0.6,0.4c0.2,0.2,0.3,0.4,0.4,0.6C67.5,19.2,67.5,19.5,67.5,19.8z M65.7,18.4c-0.1,0-0.3,0-0.4,0.1s-0.2,0.1-0.3,0.2
		c-0.1,0.1-0.2,0.2-0.2,0.3s-0.1,0.2-0.1,0.4h2.1c0-0.3-0.1-0.5-0.3-0.7C66.2,18.5,66,18.4,65.7,18.4z"/>
	<path style="fill:#FFFFFF;" d="M75.1,21.7h-0.8l-0.6-1.4H71l-0.6,1.4h-0.8l2.8-6.3L75.1,21.7z M72.3,17.3L72.3,17.3l-1,2.3h2
		L72.3,17.3z"/>
	<path style="fill:#FFFFFF;" d="M75.8,17.8h0.7v0.3c0.1-0.1,0.3-0.2,0.5-0.3c0.2-0.1,0.4-0.1,0.6-0.1c0.2,0,0.4,0,0.6,0.1
		c0.2,0.1,0.3,0.2,0.5,0.3c0.1,0.1,0.2,0.3,0.3,0.5c0.1,0.2,0.1,0.4,0.1,0.7v2.3h-0.8v-2.2c0-0.2,0-0.4-0.1-0.5
		c0-0.1-0.1-0.2-0.2-0.3c-0.2-0.2-0.4-0.2-0.6-0.2s-0.4,0.1-0.6,0.2c-0.1,0.1-0.1,0.2-0.2,0.3s-0.1,0.3-0.1,0.5v2.2h-0.8V17.8z"/>
	<path style="fill:#FFFFFF;" d="M83.8,17.8v3.9c0,0.4,0,0.6-0.1,0.9c-0.1,0.2-0.2,0.4-0.4,0.6c-0.2,0.2-0.4,0.3-0.6,0.4
		c-0.2,0.1-0.5,0.2-0.8,0.2c-0.3,0-0.5,0-0.7-0.1c-0.2-0.1-0.4-0.2-0.6-0.4c-0.2-0.1-0.3-0.3-0.4-0.5S80,22.4,80,22.1h0.8
		c0,0.3,0.1,0.5,0.3,0.7s0.5,0.3,0.8,0.3c0.3,0,0.6-0.1,0.8-0.3c0.1-0.1,0.2-0.2,0.2-0.4C83,22.2,83,22,83,21.7v-0.4
		c-0.2,0.2-0.3,0.3-0.5,0.4c-0.2,0.1-0.4,0.1-0.7,0.1c-0.3,0-0.5-0.1-0.8-0.2s-0.4-0.2-0.6-0.4c-0.2-0.2-0.3-0.4-0.4-0.6
		c-0.1-0.2-0.1-0.5-0.1-0.8s0-0.5,0.1-0.8c0.1-0.2,0.2-0.5,0.4-0.6c0.2-0.2,0.4-0.3,0.6-0.4s0.5-0.2,0.8-0.2c0.2,0,0.5,0,0.7,0.1
		s0.4,0.2,0.6,0.4v-0.4H83.8z M81.9,21c0.2,0,0.3,0,0.5-0.1s0.3-0.2,0.4-0.3s0.2-0.2,0.3-0.4c0.1-0.2,0.1-0.3,0.1-0.5
		c0-0.2,0-0.3-0.1-0.5s-0.1-0.3-0.3-0.4s-0.2-0.2-0.4-0.3s-0.3-0.1-0.5-0.1s-0.3,0-0.5,0.1s-0.3,0.2-0.4,0.3s-0.2,0.2-0.3,0.4
		s-0.1,0.3-0.1,0.5c0,0.2,0,0.3,0.1,0.5c0.1,0.2,0.1,0.3,0.3,0.4s0.2,0.2,0.4,0.3S81.7,21,81.9,21z"/>
	<path style="fill:#FFFFFF;" d="M85,15.4h0.8v6.2H85V15.4z"/>
	<path style="fill:#FFFFFF;" d="M90.4,19.8c0,0,0,0.1,0,0.1c0,0,0,0.1,0,0.1h-2.9c0,0.1,0.1,0.3,0.1,0.4c0.1,0.1,0.2,0.2,0.3,0.3
		c0.1,0.1,0.2,0.2,0.4,0.2c0.1,0,0.3,0.1,0.4,0.1c0.2,0,0.4-0.1,0.6-0.2c0.2-0.1,0.3-0.3,0.4-0.4l0.6,0.4c-0.2,0.3-0.4,0.5-0.7,0.7
		c-0.3,0.2-0.6,0.3-1,0.3c-0.3,0-0.5-0.1-0.8-0.2s-0.4-0.2-0.6-0.4c-0.2-0.2-0.3-0.4-0.4-0.6s-0.1-0.5-0.1-0.8c0-0.3,0-0.6,0.1-0.8
		c0.1-0.2,0.2-0.5,0.4-0.6s0.4-0.3,0.6-0.4c0.2-0.1,0.5-0.2,0.7-0.2c0.3,0,0.5,0.1,0.7,0.2s0.4,0.2,0.6,0.4s0.3,0.4,0.4,0.6
		C90.4,19.2,90.4,19.5,90.4,19.8z M88.6,18.4c-0.1,0-0.3,0-0.4,0.1s-0.2,0.1-0.3,0.2c-0.1,0.1-0.2,0.2-0.2,0.3s-0.1,0.2-0.1,0.4h2.1
		c0-0.3-0.1-0.5-0.3-0.7C89.1,18.5,88.9,18.4,88.6,18.4z"/>
</g>
<g>
	<path style="fill:#FFFFFF;" d="M12.8,116.8c0,0.2,0,0.5-0.1,0.7s-0.2,0.4-0.4,0.6c-0.2,0.2-0.3,0.3-0.6,0.4
		c-0.2,0.1-0.5,0.1-0.8,0.1H9.1v-6h1.3c0.3,0,0.6,0,0.8,0.1c0.2,0.1,0.4,0.2,0.5,0.3c0.2,0.2,0.3,0.3,0.4,0.5
		c0.1,0.2,0.1,0.4,0.1,0.7c0,0.2,0,0.4-0.1,0.6c-0.1,0.2-0.2,0.4-0.4,0.5c0.3,0.1,0.6,0.3,0.7,0.6C12.7,116.1,12.8,116.4,12.8,116.8
		z M10.4,115c0.2,0,0.4,0,0.5-0.1c0.1,0,0.2-0.1,0.3-0.2c0.2-0.2,0.3-0.4,0.3-0.6c0-0.1,0-0.3-0.1-0.4c0-0.1-0.1-0.2-0.2-0.3
		s-0.2-0.1-0.3-0.2c-0.1,0-0.3-0.1-0.5-0.1H9.9v1.8H10.4z M11.6,117.5c0.2-0.2,0.3-0.4,0.3-0.7c0-0.1,0-0.3-0.1-0.4
		s-0.1-0.2-0.2-0.3s-0.2-0.2-0.3-0.2s-0.3-0.1-0.5-0.1H9.9v2h0.8c0.2,0,0.4,0,0.5-0.1S11.5,117.6,11.6,117.5z"/>
	<path style="fill:#FFFFFF;" d="M15.5,114.6c0,0,0.1,0,0.1,0c0,0,0.1,0,0.1,0v0.7c0,0-0.1,0-0.1,0c0,0-0.1,0-0.1,0
		c-0.2,0-0.3,0-0.4,0.1c-0.1,0.1-0.2,0.1-0.3,0.2s-0.2,0.2-0.2,0.3c-0.1,0.1-0.1,0.3-0.1,0.5v1.9h-0.8v-3.8h0.7v0.5c0,0,0,0,0.1-0.1
		c0,0,0,0,0.1-0.1c0.1-0.1,0.3-0.2,0.4-0.3C15.1,114.7,15.3,114.6,15.5,114.6z"/>
	<path style="fill:#FFFFFF;" d="M16.9,114.1c-0.1,0-0.3-0.1-0.4-0.2c-0.1-0.1-0.2-0.2-0.2-0.4s0.1-0.3,0.2-0.4
		c0.1-0.1,0.2-0.2,0.4-0.2s0.3,0.1,0.4,0.2s0.2,0.2,0.2,0.4s-0.1,0.3-0.2,0.4C17.2,114,17.1,114.1,16.9,114.1z M16.5,114.7h0.8v3.8
		h-0.8V114.7z"/>
	<path style="fill:#FFFFFF;" d="M22.3,114.6c0.2,0,0.4,0,0.6,0.1c0.2,0.1,0.3,0.2,0.4,0.3c0.1,0.1,0.2,0.3,0.3,0.4
		c0.1,0.2,0.1,0.3,0.1,0.5v2.5H23v-2.3c0-0.2,0-0.3-0.1-0.4c0-0.1-0.1-0.2-0.2-0.2c-0.1-0.1-0.3-0.2-0.5-0.2c-0.2,0-0.4,0.1-0.5,0.2
		c-0.1,0.1-0.1,0.1-0.2,0.2c0,0.1-0.1,0.2-0.1,0.4v2.3h-0.8v-2.3c0-0.2,0-0.3-0.1-0.4c0-0.1-0.1-0.2-0.2-0.2
		c-0.1-0.1-0.3-0.2-0.5-0.2s-0.4,0.1-0.5,0.2c-0.1,0.1-0.1,0.1-0.2,0.2c0,0.1-0.1,0.2-0.1,0.4v2.3h-0.8v-3.8h0.7v0.3
		c0.1-0.1,0.2-0.2,0.4-0.3c0.2-0.1,0.3-0.1,0.5-0.1c0.4,0,0.8,0.2,1,0.5c0.1-0.2,0.3-0.3,0.5-0.4C21.9,114.6,22.1,114.6,22.3,114.6z
		"/>
	<path style="fill:#FFFFFF;" d="M31.6,118.5h-0.8l-0.6-1.4h-2.7l-0.6,1.4H26l2.8-6.3L31.6,118.5z M28.8,114.1L28.8,114.1l-1,2.3h2
		L28.8,114.1z"/>
	<path style="fill:#FFFFFF;" d="M32.2,114.7h0.7v0.3c0.1-0.1,0.3-0.2,0.5-0.3c0.2-0.1,0.4-0.1,0.6-0.1c0.2,0,0.4,0,0.6,0.1
		c0.2,0.1,0.3,0.2,0.5,0.3c0.1,0.1,0.2,0.3,0.3,0.5c0.1,0.2,0.1,0.4,0.1,0.7v2.3h-0.8v-2.2c0-0.2,0-0.4-0.1-0.5
		c0-0.1-0.1-0.2-0.2-0.3c-0.2-0.2-0.4-0.2-0.6-0.2s-0.4,0.1-0.6,0.2c-0.1,0.1-0.1,0.2-0.2,0.3s-0.1,0.3-0.1,0.5v2.2h-0.8V114.7z"/>
	<path style="fill:#FFFFFF;" d="M40.2,114.7v3.9c0,0.4,0,0.6-0.1,0.9c-0.1,0.2-0.2,0.4-0.4,0.6c-0.2,0.2-0.4,0.3-0.6,0.4
		c-0.2,0.1-0.5,0.2-0.8,0.2c-0.3,0-0.5,0-0.7-0.1c-0.2-0.1-0.4-0.2-0.6-0.4c-0.2-0.1-0.3-0.3-0.4-0.5s-0.2-0.4-0.2-0.7h0.8
		c0,0.3,0.1,0.5,0.3,0.7s0.5,0.3,0.8,0.3c0.3,0,0.6-0.1,0.8-0.3c0.1-0.1,0.2-0.2,0.2-0.4c0.1-0.2,0.1-0.4,0.1-0.6v-0.4
		c-0.2,0.2-0.3,0.3-0.5,0.4c-0.2,0.1-0.4,0.1-0.7,0.1c-0.3,0-0.5-0.1-0.8-0.2s-0.4-0.2-0.6-0.4c-0.2-0.2-0.3-0.4-0.4-0.6
		c-0.1-0.2-0.1-0.5-0.1-0.8s0-0.5,0.1-0.8c0.1-0.2,0.2-0.5,0.4-0.6c0.2-0.2,0.4-0.3,0.6-0.4s0.5-0.2,0.8-0.2c0.2,0,0.5,0,0.7,0.1
		s0.4,0.2,0.6,0.4v-0.4H40.2z M38.3,117.9c0.2,0,0.3,0,0.5-0.1s0.3-0.2,0.4-0.3s0.2-0.2,0.3-0.4c0.1-0.2,0.1-0.3,0.1-0.5
		c0-0.2,0-0.3-0.1-0.5s-0.1-0.3-0.3-0.4s-0.2-0.2-0.4-0.3s-0.3-0.1-0.5-0.1s-0.3,0-0.5,0.1s-0.3,0.2-0.4,0.3s-0.2,0.2-0.3,0.4
		s-0.1,0.3-0.1,0.5c0,0.2,0,0.3,0.1,0.5c0.1,0.2,0.1,0.3,0.3,0.4s0.2,0.2,0.4,0.3S38.2,117.9,38.3,117.9z"/>
	<path style="fill:#FFFFFF;" d="M41.5,112.3h0.8v6.2h-0.8V112.3z"/>
	<path style="fill:#FFFFFF;" d="M46.9,116.6c0,0,0,0.1,0,0.1c0,0,0,0.1,0,0.1H44c0,0.1,0.1,0.3,0.1,0.4c0.1,0.1,0.2,0.2,0.3,0.3
		c0.1,0.1,0.2,0.2,0.4,0.2c0.1,0,0.3,0.1,0.4,0.1c0.2,0,0.4-0.1,0.6-0.2c0.2-0.1,0.3-0.3,0.4-0.4l0.6,0.4c-0.2,0.3-0.4,0.5-0.7,0.7
		c-0.3,0.2-0.6,0.3-1,0.3c-0.3,0-0.5-0.1-0.8-0.2s-0.4-0.2-0.6-0.4c-0.2-0.2-0.3-0.4-0.4-0.6s-0.1-0.5-0.1-0.8c0-0.3,0-0.6,0.1-0.8
		c0.1-0.2,0.2-0.5,0.4-0.6s0.4-0.3,0.6-0.4c0.2-0.1,0.5-0.2,0.7-0.2c0.3,0,0.5,0.1,0.7,0.2s0.4,0.2,0.6,0.4s0.3,0.4,0.4,0.6
		C46.8,116.1,46.9,116.3,46.9,116.6z M45,115.3c-0.1,0-0.3,0-0.4,0.1s-0.2,0.1-0.3,0.2c-0.1,0.1-0.2,0.2-0.2,0.3s-0.1,0.2-0.1,0.4
		h2.1c0-0.3-0.1-0.5-0.3-0.7C45.6,115.4,45.3,115.3,45,115.3z"/>
</g>
<g>
	<path style="fill:#FFFFFF;" d="M238.8,138.2c-0.2,0.2-0.4,0.3-0.6,0.3c-0.2,0.1-0.4,0.1-0.7,0.1c-0.2,0-0.4-0.1-0.6-0.2
		c-0.2-0.1-0.4-0.3-0.6-0.6l-1.1-1.3l4.7-3.8l0.8,1c0.2,0.2,0.3,0.5,0.4,0.7c0.1,0.2,0.1,0.4,0.1,0.6c0,0.2-0.1,0.4-0.2,0.6
		s-0.2,0.4-0.4,0.5c-0.2,0.1-0.4,0.2-0.6,0.3s-0.4,0.1-0.6,0c0.1,0.3,0.1,0.6,0,1S239.1,138,238.8,138.2z M237.6,137.8
		c0.3,0,0.5,0,0.7-0.2c0.1-0.1,0.2-0.2,0.3-0.3c0.1-0.1,0.1-0.2,0.1-0.4c0-0.1,0-0.3,0-0.4c0-0.1-0.1-0.3-0.3-0.5l-0.5-0.7l-1.5,1.2
		l0.5,0.7c0.1,0.2,0.3,0.3,0.4,0.4C237.3,137.8,237.4,137.8,237.6,137.8z M238.7,135.3c0.1,0.2,0.3,0.3,0.4,0.3
		c0.1,0.1,0.2,0.1,0.3,0.1c0.2,0,0.5,0,0.7-0.2c0.1-0.1,0.2-0.2,0.2-0.3c0.1-0.1,0.1-0.2,0.1-0.3c0-0.1,0-0.2,0-0.4
		c0-0.1-0.1-0.3-0.3-0.4l-0.3-0.3l-1.4,1.1L238.7,135.3z"/>
	<path style="fill:#FFFFFF;" d="M242.2,139C242.2,139.1,242.2,139.1,242.2,139c0.1,0.1,0.1,0.2,0.1,0.2l-0.6,0.5c0,0,0-0.1-0.1-0.1
		s0-0.1-0.1-0.1c-0.1-0.1-0.2-0.2-0.3-0.3c-0.1-0.1-0.3-0.1-0.4-0.1c-0.1,0-0.3,0-0.4,0.1s-0.3,0.1-0.5,0.3l-1.5,1.2l-0.5-0.6l3-2.4
		l0.5,0.6l-0.4,0.3c0,0,0.1,0,0.1,0c0,0,0.1,0,0.1,0c0.2,0,0.3,0.1,0.5,0.2C241.9,138.7,242.1,138.9,242.2,139z"/>
	<path style="fill:#FFFFFF;" d="M242.8,139.8l0.5,0.6l-3,2.4l-0.5-0.6L242.8,139.8z M243.5,139.8c-0.1-0.1-0.1-0.2-0.1-0.4
		c0-0.1,0.1-0.3,0.2-0.4c0.1-0.1,0.2-0.1,0.4-0.1c0.1,0,0.3,0.1,0.4,0.2c0.1,0.1,0.1,0.2,0.1,0.4c0,0.1-0.1,0.3-0.2,0.4
		s-0.2,0.1-0.4,0.1S243.6,139.9,243.5,139.8z"/>
	<path style="fill:#FFFFFF;" d="M246.5,144.3c0.1,0.2,0.2,0.3,0.3,0.5s0.1,0.4,0.1,0.5c0,0.2-0.1,0.3-0.1,0.5
		c-0.1,0.2-0.2,0.3-0.3,0.4l-2,1.6l-0.5-0.6l1.8-1.5c0.1-0.1,0.2-0.2,0.3-0.3s0.1-0.2,0.1-0.3c0-0.2,0-0.4-0.2-0.5
		c-0.1-0.2-0.3-0.2-0.5-0.3c-0.1,0-0.2,0-0.3,0c-0.1,0-0.2,0.1-0.4,0.2l-1.8,1.5l-0.5-0.6l1.8-1.5c0.1-0.1,0.2-0.2,0.3-0.3
		s0.1-0.2,0.1-0.3c0-0.2,0-0.4-0.2-0.5s-0.3-0.2-0.5-0.3c-0.1,0-0.2,0-0.3,0c-0.1,0-0.2,0.1-0.4,0.2l-1.8,1.5l-0.5-0.6l3-2.4
		l0.5,0.6l-0.2,0.2c0.2,0,0.3,0,0.5,0.1c0.1,0.1,0.3,0.2,0.4,0.3c0.3,0.3,0.4,0.7,0.3,1.1c0.2,0,0.4,0,0.6,0.1
		C246.2,143.9,246.4,144.1,246.5,144.3z"/>
	<path style="fill:#FFFFFF;" d="M251.6,147.1l-4.1,3.3l1.2,1.4l-0.6,0.5l-1.7-2l4.7-3.8L251.6,147.1z"/>
	<path style="fill:#FFFFFF;" d="M252.2,154.3c0,0-0.1,0.1-0.1,0.1c0,0-0.1,0.1-0.1,0.1l-1.8-2.2c-0.1,0.1-0.2,0.2-0.2,0.4
		c-0.1,0.1-0.1,0.3-0.1,0.4s0,0.3,0.1,0.4c0,0.1,0.1,0.3,0.2,0.4c0.1,0.2,0.3,0.3,0.5,0.4c0.2,0.1,0.4,0.1,0.6,0l0.1,0.7
		c-0.3,0.1-0.7,0-1-0.1c-0.3-0.1-0.6-0.3-0.8-0.6c-0.2-0.2-0.3-0.4-0.4-0.7c-0.1-0.2-0.1-0.5-0.1-0.8c0-0.3,0.1-0.5,0.2-0.7
		c0.1-0.2,0.3-0.4,0.5-0.6c0.2-0.2,0.5-0.3,0.7-0.4c0.2-0.1,0.5-0.1,0.7-0.1c0.2,0,0.5,0.1,0.7,0.2s0.4,0.3,0.6,0.5
		c0.2,0.2,0.3,0.4,0.3,0.7c0.1,0.2,0.1,0.5,0,0.7c0,0.2-0.1,0.5-0.2,0.7C252.6,154,252.4,154.2,252.2,154.3z M252.1,152.1
		c-0.1-0.1-0.2-0.2-0.3-0.3c-0.1-0.1-0.2-0.1-0.4-0.1c-0.1,0-0.3,0-0.4,0s-0.2,0.1-0.4,0.2l1.3,1.6c0.2-0.2,0.3-0.4,0.3-0.7
		C252.3,152.6,252.2,152.3,252.1,152.1z"/>
	<path style="fill:#FFFFFF;" d="M254.3,153.9l0.5,0.6l-0.2,0.2c0.2,0,0.3,0.1,0.5,0.2c0.2,0.1,0.3,0.2,0.4,0.4s0.2,0.3,0.3,0.5
		c0.1,0.2,0.1,0.4,0.1,0.6c0,0.2-0.1,0.4-0.2,0.6c-0.1,0.2-0.3,0.4-0.5,0.6l-1.7,1.4l-0.5-0.6l1.7-1.4c0.2-0.1,0.3-0.2,0.3-0.4
		c0.1-0.1,0.1-0.2,0.1-0.3c0-0.2,0-0.4-0.2-0.6c-0.2-0.2-0.3-0.3-0.6-0.3c-0.1,0-0.2,0-0.3,0c-0.1,0-0.3,0.1-0.4,0.2l-1.7,1.4
		l-0.5-0.6L254.3,153.9z"/>
	<path style="fill:#FFFFFF;" d="M259.4,160.1l-3,2.5c-0.3,0.2-0.5,0.4-0.8,0.5c-0.2,0.1-0.5,0.1-0.7,0.1c-0.3,0-0.5-0.1-0.7-0.2
		c-0.2-0.1-0.4-0.3-0.6-0.5c-0.2-0.2-0.3-0.4-0.4-0.6c-0.1-0.2-0.1-0.5-0.1-0.7c0-0.2,0.1-0.4,0.2-0.6s0.2-0.4,0.4-0.5l0.5,0.6
		c-0.2,0.2-0.3,0.4-0.3,0.7s0.1,0.5,0.3,0.8c0.2,0.3,0.5,0.4,0.8,0.4c0.1,0,0.3,0,0.4-0.1c0.2-0.1,0.3-0.2,0.5-0.3l0.3-0.3
		c-0.2,0-0.4-0.1-0.6-0.2c-0.2-0.1-0.4-0.2-0.5-0.4c-0.2-0.2-0.3-0.4-0.4-0.7s-0.1-0.5-0.1-0.7c0-0.2,0.1-0.5,0.2-0.7
		c0.1-0.2,0.3-0.4,0.5-0.6s0.4-0.3,0.7-0.4c0.3-0.1,0.5-0.1,0.8-0.1s0.5,0.1,0.7,0.2s0.4,0.3,0.6,0.5c0.2,0.2,0.3,0.4,0.3,0.6
		c0.1,0.2,0.1,0.4,0.1,0.7l0.3-0.2L259.4,160.1z M255.7,160.6c0.1,0.1,0.2,0.2,0.4,0.3c0.1,0.1,0.3,0.1,0.5,0.1c0.2,0,0.3,0,0.5-0.1
		c0.2-0.1,0.3-0.1,0.4-0.2c0.1-0.1,0.3-0.2,0.3-0.4c0.1-0.1,0.1-0.3,0.2-0.5c0-0.2,0-0.3,0-0.5s-0.1-0.3-0.2-0.4
		c-0.1-0.1-0.2-0.2-0.4-0.3c-0.1-0.1-0.3-0.1-0.5-0.1s-0.3,0-0.5,0.1c-0.2,0.1-0.3,0.1-0.4,0.2c-0.1,0.1-0.3,0.2-0.3,0.4
		c-0.1,0.1-0.1,0.3-0.2,0.5s0,0.3,0,0.5C255.5,160.4,255.6,160.5,255.7,160.6z"/>
	<path style="fill:#FFFFFF;" d="M259.8,161.7l-0.4-0.5l0.5-0.4l0.4,0.5l1.1-0.9l0.5,0.6l-1.1,0.9l0.5,0.6l-0.5,0.4l-0.5-0.6l-2.4,2
		l-0.5-0.6L259.8,161.7z"/>
	<path style="fill:#FFFFFF;" d="M263.3,165.4c0,0.2-0.1,0.4-0.2,0.6s-0.3,0.4-0.5,0.6l-1.7,1.4l-0.5-0.6l1.7-1.4
		c0.2-0.1,0.3-0.2,0.3-0.4c0.1-0.1,0.1-0.2,0.1-0.3c0-0.2,0-0.4-0.2-0.6c-0.2-0.2-0.3-0.3-0.6-0.3c-0.1,0-0.2,0-0.3,0
		s-0.3,0.1-0.4,0.2l-1.7,1.4l-0.5-0.6l4.8-3.9l0.5,0.6l-2.1,1.7c0.2,0,0.3,0.1,0.5,0.2c0.2,0.1,0.3,0.2,0.4,0.4
		c0.1,0.2,0.2,0.3,0.3,0.5C263.3,165.1,263.4,165.2,263.3,165.4z"/>
</g>
</svg>
